<svg width="12" height="12" viewBox="0 0 12 12" fill="none" xmlns="http://www.w3.org/2000/svg">
<path d="M6.70354 6.00361L11.8475 0.859703C12.046 0.667963 12.0515 0.351599 11.8598 0.153066C11.668 -0.0454671 11.3516 -0.0509722 11.1531 0.140767C11.149 0.144779 11.1449 0.148878 11.1408 0.153066L5.99688 5.29697L0.852967 0.153037C0.654434 -0.0387029 0.33807 -0.0331979 0.14633 0.165335C-0.0407242 0.359007 -0.0407242 0.666031 0.14633 0.859703L5.29024 6.00361L0.14633 11.1475C-0.0487768 11.3427 -0.0487768 11.659 0.14633 11.8542C0.341467 12.0492 0.657831 12.0492 0.852967 11.8542L5.99688 6.71025L11.1408 11.8542C11.3393 12.0459 11.6557 12.0404 11.8474 11.8419C12.0344 11.6482 12.0344 11.3412 11.8474 11.1475L6.70354 6.00361Z" fill="#3F3F3F"/>
</svg>
