<svg width="22" height="22" viewBox="0 0 22 22" fill="none" xmlns="http://www.w3.org/2000/svg">
<path d="M19.1888 0H2.81123C1.26109 0 0 1.26113 0 2.81127V19.1888C0 20.7389 1.26109 22 2.81123 22H19.1888C20.7389 22 22 20.7389 22 19.1887V2.81127C22 1.26113 20.7389 0 19.1888 0ZM20.7041 19.1888C20.7041 20.0244 20.0243 20.7041 19.1888 20.7041H2.81123C1.97562 20.7041 1.29581 20.0243 1.29581 19.1888V16.8252L5.56067 13.1964C5.7163 13.064 5.94335 13.0628 6.10045 13.1932L8.77198 15.4116C9.02958 15.6255 9.40771 15.6079 9.64442 15.371L15.9922 9.01355C16.1069 8.89861 16.2406 8.88744 16.3105 8.89101C16.3801 8.89457 16.5122 8.91941 16.6146 9.04552L20.7042 14.081V19.1888H20.7041ZM20.7041 12.0254L17.6205 8.22847C17.3146 7.85189 16.8614 7.62167 16.3769 7.59679C15.8927 7.5723 15.4179 7.75457 15.0752 8.09789L9.14513 14.0371L6.92837 12.1963C6.2856 11.6626 5.3573 11.6681 4.72093 12.2096L1.29581 15.1238V2.81127C1.29581 1.97566 1.97562 1.29585 2.81123 1.29585H19.1888C20.0244 1.29585 20.7041 1.97566 20.7041 2.81127V12.0254Z" fill="#3F3F3F"/>
</svg>
