<svg width="18" height="15" viewBox="0 0 18 15" fill="none" xmlns="http://www.w3.org/2000/svg">
<path d="M0.748903 15C0.693972 15 0.638857 14.9943 0.583925 14.9811C0.244996 14.9071 0 14.6349 0 14.3085V12.9011C0 7.85717 4.37403 3.75327 9.75002 3.75327H9.99996V0.703856C9.99996 0.416782 10.186 0.158742 10.47 0.0508533C10.7529 -0.0560049 11.0779 0.00859102 11.2899 0.215951L17.79 6.5491C18.07 6.82123 18.07 7.25278 17.79 7.52491L11.2899 13.8581C11.0779 14.0654 10.7509 14.1293 10.47 14.0232C10.186 13.9153 9.99996 13.6572 9.99996 13.3702V10.3209H8.81197C5.66603 10.3209 2.83887 11.9609 1.43299 14.6002C1.3039 14.8442 1.0329 15 0.748903 15ZM9.75002 5.16063C5.54994 5.16063 2.07203 8.12071 1.56299 11.9346C3.38087 10.032 5.98793 8.91355 8.81197 8.91355H10.75C11.164 8.91355 11.5 9.2288 11.5 9.61724V11.625L16.2089 7.03701L11.5 2.44898V4.45695C11.5 4.84538 11.164 5.16063 10.75 5.16063H9.75002Z" fill="#A5A5A5"/>
</svg>
