<svg width="21" height="22" viewBox="0 0 21 22" fill="none" xmlns="http://www.w3.org/2000/svg">
<path d="M13.7973 10.8172C15.1016 9.80963 15.9432 8.23098 15.9432 6.45917C15.9432 3.42384 13.4737 0.954407 10.4384 0.954407C7.40307 0.954407 4.93364 3.42384 4.93364 6.45917C4.93364 8.23094 5.77525 9.80963 7.07947 10.8172C3.21123 12.1693 0.285645 15.8806 0.285645 20.4032C0.285645 20.8764 0.669222 21.2599 1.14242 21.2599H19.7344C20.2076 21.2599 20.5912 20.8764 20.5912 20.4032C20.5912 15.8794 17.6634 12.1685 13.7973 10.8172ZM6.64719 6.45917C6.64719 4.36869 8.34792 2.66795 10.4384 2.66795C12.5289 2.66795 14.2296 4.36869 14.2296 6.45917C14.2296 8.54966 12.5289 10.2504 10.4384 10.2504C8.34792 10.2504 6.64719 8.54966 6.64719 6.45917ZM2.04237 19.5464C2.47303 15.2938 6.07413 11.9639 10.4384 11.9639C14.8027 11.9639 18.4038 15.2938 18.8344 19.5464H2.04237Z" fill="white"/>
</svg>
